<svg width="32" height="33" viewBox="0 0 32 33" fill="none" xmlns="http://www.w3.org/2000/svg">
<g clip-path="url(#clip0_503_26)">
<path fill-rule="evenodd" clip-rule="evenodd" d="M16 4.5C9.37 4.5 4 9.87 4 16.5C4 21.81 7.435 26.295 12.205 27.885C12.805 27.99 13.03 27.63 13.03 27.315C13.03 27.03 13.015 26.085 13.015 25.08C10 25.635 9.22 24.345 8.98 23.67C8.845 23.325 8.26 22.26 7.75 21.975C7.33 21.75 6.73 21.195 7.735 21.18C8.68 21.165 9.355 22.05 9.58 22.41C10.66 24.225 12.385 23.715 13.075 23.4C13.18 22.62 13.495 22.095 13.84 21.795C11.17 21.495 8.38 20.46 8.38 15.87C8.38 14.565 8.845 13.485 9.61 12.645C9.49 12.345 9.07 11.115 9.73 9.465C9.73 9.465 10.735 9.15 13.03 10.695C13.99 10.425 15.01 10.29 16.03 10.29C17.05 10.29 18.07 10.425 19.03 10.695C21.325 9.135 22.33 9.465 22.33 9.465C22.99 11.115 22.57 12.345 22.45 12.645C23.215 13.485 23.68 14.55 23.68 15.87C23.68 20.475 20.875 21.495 18.205 21.795C18.64 22.17 19.015 22.89 19.015 24.015C19.015 25.62 19 26.91 19 27.315C19 27.63 19.225 28.005 19.825 27.885C22.2072 27.0807 24.2772 25.5497 25.7437 23.5074C27.2101 21.465 27.9993 19.0143 28 16.5C28 9.87 22.63 4.5 16 4.5Z" fill="white"/>
</g>
<defs>
<clipPath id="clip0_503_26">
<rect width="24" height="24" fill="white" transform="translate(4 4.5)"/>
</clipPath>
</defs>
</svg>
